<?xml version="1.0" encoding="UTF-8"?>
<svg width="30px" height="22px" viewBox="0 0 30 22" version="1.1" xmlns="http://www.w3.org/2000/svg" xmlns:xlink="http://www.w3.org/1999/xlink">
    <!-- Generator: Sketch 46.2 (44496) - http://www.bohemiancoding.com/sketch -->
    <title>Combined Shape</title>
    <desc>Created with Sketch.</desc>
    <defs></defs>
    <g id="Page-1" stroke="none" stroke-width="1" fill="none" fill-rule="evenodd">
        <path d="M2,0 L13,0 C14.1045695,-2.02906125e-16 15,0.8954305 15,2 L15,20 C15,21.1045695 14.1045695,22 13,22 L2,22 C0.8954305,22 1.3527075e-16,21.1045695 0,20 L0,2 L0,2 C-1.3527075e-16,0.8954305 0.8954305,2.02906125e-16 2,0 L2,0 Z M9.96590909,14.8150808 L6.40340909,11.0089767 L10,7.2567325 L8.73863636,6 L4,10.9910233 L4,11.0089767 L8.73863636,16 L9.96590909,14.8150808 Z M17,0 L28,0 C29.1045695,-2.02906125e-16 30,0.8954305 30,2 L30,20 C30,21.1045695 29.1045695,22 28,22 L17,22 C15.8954305,22 15,21.1045695 15,20 L15,2 L15,2 C15,0.8954305 15.8954305,2.02906125e-16 17,0 Z M20.0340909,14.8150808 L21.2613636,16 L26,11.0089767 L26,10.9910233 L21.2613636,6 L20,7.2567325 L23.5965909,11.0089767 L20.0340909,14.8150808 Z" id="Combined-Shape" fill="#E1E1E1"></path>
    </g>
</svg>