<?xml version="1.0" encoding="UTF-8"?>
<svg width="24px" height="24px" viewBox="0 0 24 25" version="1.1" xmlns="http://www.w3.org/2000/svg" xmlns:xlink="http://www.w3.org/1999/xlink">
    <title>eng</title>
    <g id="Page-1" stroke="none" stroke-width="1" fill="none" fill-rule="evenodd">
        <g id="eng" fill-rule="nonzero">
            <g id="Group" fill="#C42126">
                <rect id="Rectangle" x="0.0533999968" y="12.9994992" width="23.5779986" height="1"></rect>
                <rect id="Rectangle" x="1.28144992" y="6.53499961" width="21.1209987" height="1"></rect>
                <rect id="Rectangle" x="0.441549974" y="8.68949948" width="22.7999986" height="1"></rect>
                <polygon id="Path" points="5.0896497 21.6433737 18.5943989 21.6433737 18.5950989 21.6418737 5.0888997 21.6418737"></polygon>
                <path d="M11.8418493,0.0642499979 C11.6092493,0.0642499979 11.3784993,0.0810499979 11.1494493,0.107249998 L12.5343993,0.107249998 C12.3051493,0.0810499979 12.0744493,0.0642499979 11.8418493,0.0642499979 Z" id="Path"></path>
                <rect id="Rectangle" x="0.0488999971" y="10.8444994" width="23.5854986" height="1"></rect>
            </g>
            <path d="M15.3418991,4.38044974 L20.9964987,4.38044974 C20.3248488,3.56279979 19.5442488,2.83899983 18.6794489,2.22624987 L14.4333491,2.22624987 C14.7846991,2.84439983 15.0868491,3.57379979 15.3418991,4.38044974 Z" id="Path" fill="#E7E7E7"></path>
            <path d="M14.4333491,2.22624987 L18.6794489,2.22624987 C16.924099,0.982299941 14.8166491,0.203299988 12.5343993,0.0714999957 L12.1697993,0.0714999957 C13.2439992,0.206699988 13.7373992,1.00169994 14.4333491,2.22624987 Z" id="Path" fill="#DC3027"></path>
            <path d="M23.2422986,8.68969948 C23.0317486,7.93879953 22.7493986,7.21834957 22.4023987,6.53549961 L15.8969991,6.53549961 C16.028799,7.22714957 16.132799,7.94959953 16.209799,8.68969948 L23.2422986,8.68969948 Z" id="Path" fill="#E7E7E7"></path>
            <path d="M15.5310991,6.53514961 L22.4021987,6.53514961 C22.0106487,5.76499966 21.5402487,5.0422997 20.9964987,4.38059974 L14.9942991,4.38059974 C15.2059491,5.0505497 15.3856491,5.77324966 15.5310991,6.53514961 Z" id="Path" fill="#DC3027"></path>
            <path d="M16.458899,12.9989992 L23.6304486,12.9989992 C23.6644986,12.6345992 23.6837486,12.2652993 23.6837486,11.8920993 C23.6837486,11.5388993 23.6652486,11.1901993 23.6349486,10.8446494 L16.460599,10.8446494 C16.483949,11.5611493 16.483549,12.2828993 16.458899,12.9989992 Z" id="Path" fill="#E7E7E7"></path>
            <path d="M23.6351486,10.8442994 C23.5702486,10.1043994 23.4369486,9.38454944 23.2422986,8.69009948 L15.9076991,8.69009948 C15.981349,9.39554944 16.029999,10.1172994 16.053749,10.8442994 L23.6351486,10.8442994 Z" id="Path" fill="#DC3027"></path>
            <path d="M15.7732491,17.308299 L22.3713487,17.308299 C22.7232486,16.626199 23.0100486,15.9051991 23.2250986,15.1537491 L16.092249,15.1537491 C16.013699,15.8949491 15.9070991,16.617249 15.7732491,17.308299 Z" id="Path" fill="#E7E7E7"></path>
            <path d="M23.2252986,15.1535991 C23.4240486,14.4593491 23.5620486,13.7394992 23.6306486,12.9993992 L16.235449,12.9993992 C16.210199,13.7269492 16.160099,14.4484991 16.084949,15.1535991 L23.2252986,15.1535991 L23.2252986,15.1535991 Z" id="Path" fill="#DC3027"></path>
            <path d="M18.5950989,21.6172487 C19.4723988,21.0069487 20.2640488,20.2823988 20.9463488,19.4630488 L15.3902991,19.4630488 C15.1305991,20.2730488 14.8222491,21.0012987 14.4645491,21.6172487 L18.5950989,21.6172487 L18.5950989,21.6172487 Z" id="Path" fill="#E7E7E7"></path>
            <g id="Group" transform="translate(11.299999, 17.299999)" fill="#DC3027">
                <path d="M3.88124977,2.16289987 L9.64634943,2.16289987 C10.1964494,1.50194991 10.6739994,0.779249954 11.0712993,0.0083499995 L4.42479974,0.0083499995 C4.27729975,0.770799954 4.09574976,1.49384991 3.88124977,2.16289987 Z" id="Path"></path>
                <path d="M0.140899998,6.45174962 C0.107543452,6.45024962 0.0742565435,6.44804962 0.0408999976,6.44654962 C0.0742565435,6.44794962 0.107613089,6.45024962 0.140899998,6.45174962 Z" id="Path"></path>
                <path d="M0.541849968,6.43384962 C3.05239982,6.43384962 5.37859968,5.65019966 7.29439957,4.31799974 L3.00864982,4.31799974 C2.24799987,5.62849966 1.7461499,6.43384962 0.541849968,6.43384962 Z" id="Path"></path>
            </g>
            <path d="M11.8418493,23.7630486 C11.6980493,23.7630486 11.5551993,23.7563486 11.4127493,23.7462486 C11.5566993,23.7559486 11.6996993,23.7630486 11.8418493,23.7630486 Z" id="Path" fill="#C42126"></path>
            <path d="M14.8254491,2.22624987 L5.0045997,2.22624987 C4.13964975,2.83899983 3.3591998,3.56274979 2.68734984,4.38044974 L15.7337991,4.38044974 C15.4787491,3.57379979 15.1767991,2.84439983 14.8254491,2.22624987 Z" id="Path" fill="#F3F4F5"></path>
            <path d="M5.0045997,2.22624987 L14.8254491,2.22624987 C14.1293492,1.00169994 13.2439992,0.206699988 12.1697993,0.0714999957 L11.1494493,0.0714999957 C8.86719947,0.203299988 6.7597496,0.982299941 5.0045997,2.22624987 Z" id="Path" fill="#E73625"></path>
            <path d="M0.441749974,8.68969948 L16.583249,8.68969948 C16.506199,7.94944953 16.402249,7.22714957 16.270449,6.53549961 L1.28164992,6.53549961 C0.934599944,7.21839957 0.652299961,7.93879953 0.441749974,8.68969948 Z" id="Path" fill="#F3F4F5"></path>
            <path d="M2.68734984,4.38044974 C2.14399987,5.0421497 1.6731999,5.76479966 1.28184992,6.53499961 L16.270449,6.53499961 C16.125149,5.77324966 15.945499,5.0505997 15.7337991,4.38044974 C15.7337991,4.38044974 2.68734984,4.38044974 2.68734984,4.38044974 Z" id="Path" fill="#E73625"></path>
            <path d="M9.9999994e-05,11.8920993 C9.9999994e-05,12.2652993 0.0195499988,12.6345992 0.0533999968,12.9989992 L16.727949,12.9989992 C16.752649,12.2828493 16.752999,11.5612993 16.729649,10.8447994 L0.0488999971,10.8447994 C0.0185999989,11.1901993 9.9999994e-05,11.5388993 9.9999994e-05,11.8920993 Z" id="Path" fill="#F3F4F5"></path>
            <path d="M0.0488999971,10.8442994 L16.729449,10.8442994 C16.705699,10.1171494 16.656899,9.39559944 16.583399,8.69009948 L0.441549974,8.69009948 C0.246899985,9.38469944 0.113599993,10.1043994 0.0488999971,10.8442994 Z" id="Path" fill="#E73625"></path>
            <path d="M16.577449,15.1535991 L0.458749973,15.1535991 C0.67379996,15.9052491 0.960799943,16.626049 1.31249992,17.308149 L16.258449,17.308149 C16.392349,16.617249 16.498699,15.8949491 16.577449,15.1535991 Z" id="Path" fill="#F3F4F5"></path>
            <path d="M0.458749973,15.1535991 L16.577449,15.1535991 C16.652449,14.4484991 16.702699,13.7267492 16.727949,12.9993992 L0.0533999968,12.9993992 C0.121999993,13.7396492 0.260199984,14.4593491 0.458749973,15.1535991 Z" id="Path" fill="#E73625"></path>
            <path d="M5.0888997,21.6172487 L14.7893491,21.6172487 C15.1470491,21.0011487 15.4555491,20.2730488 15.7150991,19.4630488 L2.73764984,19.4630488 C3.4199498,20.2823988 4.21139975,21.0069487 5.0888997,21.6172487 Z" id="Path" fill="#F3F4F5"></path>
            <g id="Group" transform="translate(1.300000, 17.299999)" fill="#E73625">
                <path d="M0.0126999992,0.00829999951 C0.410049976,0.779199954 0.887549947,1.50189991 1.43764991,2.16284987 L14.4150991,2.16284987 C14.6293991,1.49384991 14.8109491,0.770799954 14.9584491,0.00829999951 L0.0126999992,0.00829999951 Z" id="Path"></path>
                <path d="M10.0408994,6.42279962 C10.0648494,6.42354962 10.0887494,6.42464962 10.1126994,6.42539962 C10.2551994,6.43044962 10.3980494,6.43379962 10.5417994,6.43379962 C11.7461493,6.43379962 12.7281492,5.62849966 13.4889492,4.31794974 L3.78964977,4.31794974 C5.57699967,5.56104967 7.72239954,6.32614962 10.0408994,6.42279962 Z" id="Path"></path>
            </g>
            <path d="M11.5970493,0.0561499967 C5.52869967,0.179599989 0.582699965,4.86504971 0.050399997,10.8249994 L11.5972493,10.8249994 L11.5972493,0.0561499967 L11.5970493,0.0561499967 Z" id="Path" fill="#283991"></path>
            <g id="Group" transform="translate(0.350000, 0.850000)" fill="#EFEFEF">
                <polygon id="Path" points="2.01949988 5.90934965 2.19989987 6.46484961 2.78439983 6.46484961 2.31154986 6.80834959 2.49214985 7.36424956 2.01949988 7.02054958 1.54699991 7.36424956 1.7272499 6.80834959 1.25454993 6.46484961 1.83904989 6.46484961"></polygon>
                <polygon id="Path" points="2.01949988 7.87189953 2.19989987 8.4277495 2.78439983 8.4277495 2.31154986 8.77124948 2.49214985 9.32714944 2.01949988 8.98344946 1.54699991 9.32714944 1.7272499 8.77124948 1.25454993 8.4277495 1.83904989 8.4277495"></polygon>
                <polygon id="Path" points="3.98239976 2.96479982 4.16284975 3.52049979 4.74714972 3.52049979 4.27444975 3.86419977 4.45489973 4.41969974 3.98239976 4.07639976 3.50969979 4.41969974 3.69014978 3.86419977 3.21724981 3.52049979 3.80174977 3.52049979"></polygon>
                <polygon id="Path" points="3.98239976 4.92769971 4.16284975 5.48339967 4.74714972 5.48339967 4.27444975 5.82669965 4.45489973 6.38259962 3.98239976 6.03929964 3.50969979 6.38259962 3.69014978 5.82669965 3.21724981 5.48339967 3.80174977 5.48339967"></polygon>
                <polygon id="Path" points="3.98239976 6.89059959 4.16284975 7.44649956 4.74714972 7.44649956 4.27444975 7.78959954 4.45489973 8.3454995 3.98239976 8.00184952 3.50969979 8.3454995 3.69014978 7.78959954 3.21724981 7.44649956 3.80174977 7.44649956"></polygon>
                <path d="M0.529249968,8.3454995 L0.348649979,7.78959954 L0.821349951,7.44629956 L0.237199986,7.44629956 L0.224099987,7.40574956 C0.15994999,7.60414955 0.101999994,7.80494953 0.0485499971,8.00799952 L0.0567999966,8.00184952 L0.529249968,8.3454995 Z" id="Path"></path>
                <path d="M1.54699991,5.40134968 L2.01949988,5.0576997 L2.49219985,5.40134968 L2.31159986,4.84544971 L2.78429983,4.50179973 L2.19979987,4.50179973 L2.01934988,3.94629976 L1.83889989,4.50179973 L1.6234999,4.50179973 C1.58349991,4.56239973 1.54479991,4.62334972 1.50589991,4.68484972 L1.7272999,4.84544971 L1.54699991,5.40134968 Z" id="Path"></path>
                <path d="M3.98239976,2.11349987 L4.45489973,2.45679985 L4.27444975,1.90129989 L4.74694972,1.55764991 L4.40944974,1.55764991 C4.12279975,1.77194989 3.84624977,1.99874988 3.58054979,2.23804987 L3.50929979,2.45679985 L3.98239976,2.11349987 Z" id="Path"></path>
                <path d="M5.47259967,1.47554991 L5.94529965,1.13189993 L6.41779962,1.47554991 L6.23734963,0.919649945 L6.7098496,0.576349966 L6.12554963,0.576349966 L6.10104964,0.50154997 C5.90304965,0.602699964 5.70709966,0.707949958 5.51559967,0.819949951 L5.65284966,0.919599945 L5.47259967,1.47554991 Z" id="Path"></path>
                <polygon id="Path" points="5.94529965 1.98354988 6.12574963 2.53889985 6.7100496 2.53889985 6.23734963 2.88254983 6.41779962 3.4384498 5.94529965 3.09474982 5.47259967 3.4384498 5.65304966 2.88254983 5.18019969 2.53889985 5.76464966 2.53889985"></polygon>
                <polygon id="Path" points="5.94529965 3.94644976 6.12574963 4.50179973 6.7100496 4.50179973 6.23734963 4.84544971 6.41779962 5.40134968 5.94529965 5.0576497 5.47259967 5.40134968 5.65304966 4.84544971 5.18019969 4.50179973 5.76464966 4.50179973"></polygon>
                <polygon id="Path" points="5.94529965 5.90934965 6.12574963 6.46484961 6.7100496 6.46484961 6.23734963 6.80834959 6.41779962 7.36424956 5.94529965 7.02054958 5.47259967 7.36424956 5.65304966 6.80834959 5.18019969 6.46484961 5.76464966 6.46484961"></polygon>
                <polygon id="Path" points="5.94529965 7.87189953 6.12574963 8.4277495 6.7100496 8.4277495 6.23734963 8.77124948 6.41779962 9.32714944 5.94529965 8.98344946 5.47259967 9.32714944 5.65304966 8.77124948 5.18019969 8.4277495 5.76464966 8.4277495"></polygon>
                <polygon id="Path" points="7.90819953 1.00189994 8.08864952 1.55759991 8.67294948 1.55759991 8.20044951 1.90129989 8.3806995 2.45679985 7.90819953 2.11349987 7.43534956 2.45679985 7.61594955 1.90129989 7.14309957 1.55759991 7.72754954 1.55759991"></polygon>
                <polygon id="Path" points="7.90819953 2.96479982 8.08864952 3.52049979 8.67294948 3.52049979 8.20044951 3.86419977 8.3806995 4.41969974 7.90819953 4.07639976 7.43534956 4.41969974 7.61594955 3.86419977 7.14309957 3.52049979 7.72754954 3.52049979"></polygon>
                <polygon id="Path" points="7.90819953 4.92769971 8.08864952 5.48339967 8.67294948 5.48339967 8.20044951 5.82669965 8.3806995 6.38259962 7.90819953 6.03929964 7.43534956 6.38259962 7.61594955 5.82669965 7.14309957 5.48339967 7.72754954 5.48339967"></polygon>
                <polygon id="Path" points="7.90819953 6.89059959 8.08864952 7.44649956 8.67294948 7.44649956 8.20044951 7.78959954 8.3806995 8.3454995 7.90819953 8.00184952 7.43534956 8.3454995 7.61594955 7.78959954 7.14309957 7.44649956 7.72754954 7.44649956"></polygon>
                <polygon id="Path" points="9.87109941 0.0206499988 10.0515494 0.576349966 10.6358494 0.576349966 10.1631494 0.919649945 10.3435994 1.47554991 9.87109941 1.13184993 9.39824944 1.47554991 9.57884943 0.919649945 9.10599946 0.576349966 9.69029942 0.576349966"></polygon>
                <polygon id="Path" points="9.87109941 1.98354988 10.0515494 2.53889985 10.6358494 2.53889985 10.1631494 2.88254983 10.3435994 3.4384498 9.87109941 3.09474982 9.39824944 3.4384498 9.57884943 2.88254983 9.10599946 2.53889985 9.69029942 2.53889985"></polygon>
                <polygon id="Path" points="9.87109941 3.94644976 10.0515494 4.50179973 10.6358494 4.50179973 10.1631494 4.84544971 10.3435994 5.40134968 9.87109941 5.0576497 9.39824944 5.40134968 9.57884943 4.84544971 9.10599946 4.50179973 9.69029942 4.50179973"></polygon>
                <polygon id="Path" points="9.87109941 5.90934965 10.0515494 6.46484961 10.6358494 6.46484961 10.1631494 6.80834959 10.3435994 7.36424956 9.87109941 7.02054958 9.39824944 7.36424956 9.57884943 6.80834959 9.10599946 6.46484961 9.69029942 6.46484961"></polygon>
                <polygon id="Path" points="9.87109941 7.87189953 10.0515494 8.4277495 10.6358494 8.4277495 10.1631494 8.77124948 10.3435994 9.32714944 9.87109941 8.98344946 9.39824944 9.32714944 9.57884943 8.77124948 9.10599946 8.4277495 9.69029942 8.4277495"></polygon>
            </g>
        </g>
    </g>
</svg>