<?xml version="1.0" encoding="UTF-8"?>
<svg width="24px" height="24px" viewBox="0 0 24 25" version="1.1" xmlns="http://www.w3.org/2000/svg" xmlns:xlink="http://www.w3.org/1999/xlink">
    <title>esp</title>
    <g id="Page-1" stroke="none" stroke-width="1" fill="none" fill-rule="evenodd">
        <g id="esp" fill-rule="nonzero">
            <path d="M15.2727991,11.3352993 L23.6711486,11.3352993 C23.4052486,5.0301997 18.2118989,9.9999994e-05 11.8417493,9.9999994e-05 C15.0184991,9.9999994e-05 15.1820991,5.58794967 15.2727991,11.3352993 Z" id="Path" fill="#FBD015"></path>
            <path d="M15.2727991,17.551949 L22.2171987,17.551949 C23.1511486,15.8584991 23.6840486,13.9127992 23.6840486,11.8421993 C23.6840486,11.6723993 23.6784486,11.5035993 23.6713486,11.3352993 L15.8163491,11.3352993 C15.8501991,13.4797492 15.6684491,15.6449491 15.2727991,17.551949 Z" id="Path" fill="#21428C"></path>
            <g id="Group" transform="translate(11.349999, 17.549999)" fill="#CD202A">
                <path d="M0.121849999,6.15407464 C0.0885715802,6.15257464 0.0551284171,6.14957464 0.0218499987,6.14737464 C0.0549087576,6.14957464 0.0884068356,6.15257464 0.121849999,6.15407464 Z" id="Path"></path>
                <path d="M0.491749971,6.13394963 C4.9610997,6.13394963 8.85099947,3.65724978 10.8669994,0.00199999988 L3.67334978,0.00199999988 C2.94599982,3.50594979 2.66984984,6.13394963 0.491749971,6.13394963 Z" id="Path"></path>
            </g>
            <path d="M11.8417493,23.7122236 C11.7147993,23.7122236 11.5885993,23.7070236 11.4629493,23.6991236 C11.5892993,23.7069236 11.7156993,23.7122236 11.8417493,23.7122236 Z" id="Path" fill="#FFFFFF"></path>
            <path d="M0.0126999992,11.3352993 L16.742449,11.3352993 C16.651949,5.58794967 15.0184991,9.9999994e-05 11.8417493,9.9999994e-05 C5.47194967,9.9999994e-05 0.278599983,5.0301997 0.0126999992,11.3352993 Z" id="Path" fill="#FCD73E"></path>
            <path d="M16.742449,11.3352993 L0.0126999992,11.3352993 C0.00559999967,11.5035993 0,11.6724493 0,11.8421993 C0,13.9127992 0.532899968,15.8584991 1.46684991,17.551949 L16.199099,17.551949 C16.594749,15.6449491 16.776499,13.4797492 16.742449,11.3352993 Z" id="Path" fill="#1D4F95"></path>
            <path d="M11.3716493,23.6739986 C11.4019493,23.6750986 11.4323993,23.6765986 11.4626993,23.6773486 C11.5885493,23.6812986 11.7147493,23.6838986 11.8414993,23.6838986 C14.0195992,23.6838986 15.4712991,21.0558987 16.198649,17.551949 L1.46664991,17.551949 C3.4117998,21.0781987 7.10109958,23.5072486 11.3716493,23.6739986 Z" id="Path" fill="#D11F3E"></path>
        </g>
    </g>
</svg>